<mxfile host="app.diagrams.net" modified="2022-08-04T02:04:32.224Z" agent="5.0 (X11; Linux x86_64) AppleWebKit/537.36 (KHTML, like Gecko) Chrome/103.0.0.0 Safari/537.36" etag="cQR6BDmFEzGIQ0-19WlA" version="20.2.3" type="github">
  <diagram id="cDLx2QUWOKIp3lC3iTJC" name="Page-1">
    <mxGraphModel dx="1422" dy="800" grid="1" gridSize="10" guides="1" tooltips="1" connect="1" arrows="1" fold="1" page="1" pageScale="1" pageWidth="850" pageHeight="1100" math="0" shadow="0">
      <root>
        <mxCell id="0" />
        <mxCell id="1" parent="0" />
        <mxCell id="MPPPj-Tqdv4zXI_-CWzu-7" value="List" style="swimlane;fontStyle=0;childLayout=stackLayout;horizontal=1;startSize=26;horizontalStack=0;resizeParent=1;resizeParentMax=0;resizeLast=0;collapsible=1;marginBottom=0;align=center;fontSize=14;" vertex="1" parent="1">
          <mxGeometry x="340" y="350" width="160" height="116" as="geometry" />
        </mxCell>
        <mxCell id="MPPPj-Tqdv4zXI_-CWzu-8" value="Item 1" style="text;strokeColor=none;fillColor=none;spacingLeft=4;spacingRight=4;overflow=hidden;rotatable=0;points=[[0,0.5],[1,0.5]];portConstraint=eastwest;fontSize=12;" vertex="1" parent="MPPPj-Tqdv4zXI_-CWzu-7">
          <mxGeometry y="26" width="160" height="30" as="geometry" />
        </mxCell>
        <mxCell id="MPPPj-Tqdv4zXI_-CWzu-9" value="Item 2" style="text;strokeColor=none;fillColor=none;spacingLeft=4;spacingRight=4;overflow=hidden;rotatable=0;points=[[0,0.5],[1,0.5]];portConstraint=eastwest;fontSize=12;" vertex="1" parent="MPPPj-Tqdv4zXI_-CWzu-7">
          <mxGeometry y="56" width="160" height="30" as="geometry" />
        </mxCell>
        <mxCell id="MPPPj-Tqdv4zXI_-CWzu-10" value="Item 3" style="text;strokeColor=none;fillColor=none;spacingLeft=4;spacingRight=4;overflow=hidden;rotatable=0;points=[[0,0.5],[1,0.5]];portConstraint=eastwest;fontSize=12;" vertex="1" parent="MPPPj-Tqdv4zXI_-CWzu-7">
          <mxGeometry y="86" width="160" height="30" as="geometry" />
        </mxCell>
        <mxCell id="MPPPj-Tqdv4zXI_-CWzu-11" value="Requirement specification(Req. Analysis)" style="swimlane;fontStyle=0;childLayout=stackLayout;horizontal=1;startSize=26;horizontalStack=0;resizeParent=1;resizeParentMax=0;resizeLast=0;collapsible=1;marginBottom=0;align=center;fontSize=14;" vertex="1" parent="1">
          <mxGeometry x="250" y="20" width="490" height="116" as="geometry" />
        </mxCell>
        <mxCell id="MPPPj-Tqdv4zXI_-CWzu-12" value="whats roles (person / user group)" style="text;strokeColor=none;fillColor=none;spacingLeft=4;spacingRight=4;overflow=hidden;rotatable=0;points=[[0,0.5],[1,0.5]];portConstraint=eastwest;fontSize=12;" vertex="1" parent="MPPPj-Tqdv4zXI_-CWzu-11">
          <mxGeometry y="26" width="490" height="30" as="geometry" />
        </mxCell>
        <mxCell id="MPPPj-Tqdv4zXI_-CWzu-13" value="what actions do these roles performs" style="text;strokeColor=none;fillColor=none;spacingLeft=4;spacingRight=4;overflow=hidden;rotatable=0;points=[[0,0.5],[1,0.5]];portConstraint=eastwest;fontSize=12;" vertex="1" parent="MPPPj-Tqdv4zXI_-CWzu-11">
          <mxGeometry y="56" width="490" height="30" as="geometry" />
        </mxCell>
        <mxCell id="MPPPj-Tqdv4zXI_-CWzu-14" value="which data and functions are required" style="text;strokeColor=none;fillColor=none;spacingLeft=4;spacingRight=4;overflow=hidden;rotatable=0;points=[[0,0.5],[1,0.5]];portConstraint=eastwest;fontSize=12;" vertex="1" parent="MPPPj-Tqdv4zXI_-CWzu-11">
          <mxGeometry y="86" width="490" height="30" as="geometry" />
        </mxCell>
        <mxCell id="MPPPj-Tqdv4zXI_-CWzu-19" value="user (guest / host)" style="swimlane;fontStyle=0;childLayout=stackLayout;horizontal=1;startSize=26;horizontalStack=0;resizeParent=1;resizeParentMax=0;resizeLast=0;collapsible=1;marginBottom=0;align=center;fontSize=14;" vertex="1" parent="1">
          <mxGeometry x="60" y="200" width="160" height="116" as="geometry" />
        </mxCell>
        <mxCell id="MPPPj-Tqdv4zXI_-CWzu-20" value="comission from guest(%6-12)" style="text;strokeColor=none;fillColor=none;spacingLeft=4;spacingRight=4;overflow=hidden;rotatable=0;points=[[0,0.5],[1,0.5]];portConstraint=eastwest;fontSize=12;" vertex="1" parent="MPPPj-Tqdv4zXI_-CWzu-19">
          <mxGeometry y="26" width="160" height="30" as="geometry" />
        </mxCell>
        <mxCell id="MPPPj-Tqdv4zXI_-CWzu-21" value="comission from host()%3" style="text;strokeColor=none;fillColor=none;spacingLeft=4;spacingRight=4;overflow=hidden;rotatable=0;points=[[0,0.5],[1,0.5]];portConstraint=eastwest;fontSize=12;" vertex="1" parent="MPPPj-Tqdv4zXI_-CWzu-19">
          <mxGeometry y="56" width="160" height="30" as="geometry" />
        </mxCell>
        <mxCell id="MPPPj-Tqdv4zXI_-CWzu-22" value="Item 3" style="text;strokeColor=none;fillColor=none;spacingLeft=4;spacingRight=4;overflow=hidden;rotatable=0;points=[[0,0.5],[1,0.5]];portConstraint=eastwest;fontSize=12;" vertex="1" parent="MPPPj-Tqdv4zXI_-CWzu-19">
          <mxGeometry y="86" width="160" height="30" as="geometry" />
        </mxCell>
        <mxCell id="MPPPj-Tqdv4zXI_-CWzu-23" value="overnight stay" style="swimlane;fontStyle=0;childLayout=stackLayout;horizontal=1;startSize=26;horizontalStack=0;resizeParent=1;resizeParentMax=0;resizeLast=0;collapsible=1;marginBottom=0;align=center;fontSize=14;" vertex="1" parent="1">
          <mxGeometry x="360" y="190" width="160" height="116" as="geometry" />
        </mxCell>
        <mxCell id="MPPPj-Tqdv4zXI_-CWzu-24" value="Item 1" style="text;strokeColor=none;fillColor=none;spacingLeft=4;spacingRight=4;overflow=hidden;rotatable=0;points=[[0,0.5],[1,0.5]];portConstraint=eastwest;fontSize=12;" vertex="1" parent="MPPPj-Tqdv4zXI_-CWzu-23">
          <mxGeometry y="26" width="160" height="30" as="geometry" />
        </mxCell>
        <mxCell id="MPPPj-Tqdv4zXI_-CWzu-25" value="Item 2" style="text;strokeColor=none;fillColor=none;spacingLeft=4;spacingRight=4;overflow=hidden;rotatable=0;points=[[0,0.5],[1,0.5]];portConstraint=eastwest;fontSize=12;" vertex="1" parent="MPPPj-Tqdv4zXI_-CWzu-23">
          <mxGeometry y="56" width="160" height="30" as="geometry" />
        </mxCell>
        <mxCell id="MPPPj-Tqdv4zXI_-CWzu-26" value="Item 3" style="text;strokeColor=none;fillColor=none;spacingLeft=4;spacingRight=4;overflow=hidden;rotatable=0;points=[[0,0.5],[1,0.5]];portConstraint=eastwest;fontSize=12;" vertex="1" parent="MPPPj-Tqdv4zXI_-CWzu-23">
          <mxGeometry y="86" width="160" height="30" as="geometry" />
        </mxCell>
        <mxCell id="MPPPj-Tqdv4zXI_-CWzu-40" value="host" style="swimlane;fontStyle=0;childLayout=stackLayout;horizontal=1;startSize=26;horizontalStack=0;resizeParent=1;resizeParentMax=0;resizeLast=0;collapsible=1;marginBottom=0;align=center;fontSize=14;" vertex="1" parent="1">
          <mxGeometry x="80" y="376" width="160" height="116" as="geometry" />
        </mxCell>
        <mxCell id="MPPPj-Tqdv4zXI_-CWzu-41" value="picture" style="text;strokeColor=none;fillColor=none;spacingLeft=4;spacingRight=4;overflow=hidden;rotatable=0;points=[[0,0.5],[1,0.5]];portConstraint=eastwest;fontSize=12;" vertex="1" parent="MPPPj-Tqdv4zXI_-CWzu-40">
          <mxGeometry y="26" width="160" height="30" as="geometry" />
        </mxCell>
        <mxCell id="MPPPj-Tqdv4zXI_-CWzu-42" value="phone" style="text;strokeColor=none;fillColor=none;spacingLeft=4;spacingRight=4;overflow=hidden;rotatable=0;points=[[0,0.5],[1,0.5]];portConstraint=eastwest;fontSize=12;" vertex="1" parent="MPPPj-Tqdv4zXI_-CWzu-40">
          <mxGeometry y="56" width="160" height="30" as="geometry" />
        </mxCell>
        <mxCell id="MPPPj-Tqdv4zXI_-CWzu-43" value="Item 3" style="text;strokeColor=none;fillColor=none;spacingLeft=4;spacingRight=4;overflow=hidden;rotatable=0;points=[[0,0.5],[1,0.5]];portConstraint=eastwest;fontSize=12;" vertex="1" parent="MPPPj-Tqdv4zXI_-CWzu-40">
          <mxGeometry y="86" width="160" height="30" as="geometry" />
        </mxCell>
        <mxCell id="MPPPj-Tqdv4zXI_-CWzu-44" value="rate" style="swimlane;fontStyle=0;childLayout=stackLayout;horizontal=1;startSize=26;horizontalStack=0;resizeParent=1;resizeParentMax=0;resizeLast=0;collapsible=1;marginBottom=0;align=center;fontSize=14;" vertex="1" parent="1">
          <mxGeometry x="550" y="300" width="240" height="116" as="geometry" />
        </mxCell>
        <mxCell id="MPPPj-Tqdv4zXI_-CWzu-45" value="guest and host can rate each other" style="text;strokeColor=none;fillColor=none;spacingLeft=4;spacingRight=4;overflow=hidden;rotatable=0;points=[[0,0.5],[1,0.5]];portConstraint=eastwest;fontSize=12;" vertex="1" parent="MPPPj-Tqdv4zXI_-CWzu-44">
          <mxGeometry y="26" width="240" height="30" as="geometry" />
        </mxCell>
        <mxCell id="MPPPj-Tqdv4zXI_-CWzu-46" value="Item 2" style="text;strokeColor=none;fillColor=none;spacingLeft=4;spacingRight=4;overflow=hidden;rotatable=0;points=[[0,0.5],[1,0.5]];portConstraint=eastwest;fontSize=12;" vertex="1" parent="MPPPj-Tqdv4zXI_-CWzu-44">
          <mxGeometry y="56" width="240" height="30" as="geometry" />
        </mxCell>
        <mxCell id="MPPPj-Tqdv4zXI_-CWzu-47" value="Item 3" style="text;strokeColor=none;fillColor=none;spacingLeft=4;spacingRight=4;overflow=hidden;rotatable=0;points=[[0,0.5],[1,0.5]];portConstraint=eastwest;fontSize=12;" vertex="1" parent="MPPPj-Tqdv4zXI_-CWzu-44">
          <mxGeometry y="86" width="240" height="30" as="geometry" />
        </mxCell>
        <mxCell id="MPPPj-Tqdv4zXI_-CWzu-48" value="calculator function to calculate expected income" style="ellipse;whiteSpace=wrap;html=1;align=center;fontStyle=4;" vertex="1" parent="1">
          <mxGeometry x="230" y="530" width="210" height="120" as="geometry" />
        </mxCell>
        <mxCell id="MPPPj-Tqdv4zXI_-CWzu-49" value="social networks links / display aitBnb user ratisg" style="ellipse;whiteSpace=wrap;html=1;align=center;" vertex="1" parent="1">
          <mxGeometry x="550" y="500" width="290" height="280" as="geometry" />
        </mxCell>
      </root>
    </mxGraphModel>
  </diagram>
</mxfile>
